<svg width="206" height="141" viewBox="0 0 206 141" fill="none" xmlns="http://www.w3.org/2000/svg">
<path d="M89.4615 92L74 92L74 60.9086C75.2885 52.3504 84.1359 40.0871 104.923 40.0005C125.71 39.9138 139.354 52.1698 141 60.9086L125.538 60.9086C103.527 39.5671 90.2131 57.117 89.4615 60.9086L89.4615 81.7084L104.923 81.7084L104.923 92L89.4615 92Z" fill="#D8C293" stroke="#D8C293" stroke-width="3" stroke-linecap="round"/>
<path d="M128.059 16L128.059 4L159 4C166.6 47.2 186 61 199 71C168.2 91 158.833 123.5 158 137L128 137L128 125L148.5 125C148.5 107 164.5 85.5 172.5 77L128.059 77L128.059 65L172.5 65C160.5 53.4 151.5 27.5 148.5 16L128.059 16Z" fill="#D8C293" stroke="#D8C293" stroke-width="7" stroke-linecap="round"/>
<path d="M77.9412 125V137H47C39.4 93.8 20 80 7 70C37.8 50 47.1667 17.5 48 4.00001H78V16H57.5C57.5 34 41.5 55.5 33.5 64V76C45.5 87.6 54.5 113.5 57.5 125H77.9412Z" fill="#D8C293" stroke="#D8C293" stroke-width="7" stroke-linecap="round"/>
</svg>
